<svg xmlns="http://www.w3.org/2000/svg" xmlns:xlink="http://www.w3.org/1999/xlink" viewBox="0 0 216 216"><defs><style>.cls-1,.cls-14,.cls-3{fill:#fff;}.cls-1,.cls-11,.cls-13,.cls-14,.cls-5,.cls-7,.cls-8,.cls-9{stroke:#231f20;}.cls-1,.cls-13,.cls-15,.cls-16,.cls-17,.cls-5,.cls-7,.cls-8{stroke-miterlimit:10;}.cls-1,.cls-14,.cls-5,.cls-8,.cls-9{stroke-width:3px;}.cls-11,.cls-13,.cls-2,.cls-5,.cls-7,.cls-8,.cls-9{fill:none;}.cls-4{clip-path:url(#clip-path);}.cls-11,.cls-14,.cls-5,.cls-7{stroke-linecap:round;}.cls-6{fill:#231f20;}.cls-13,.cls-15,.cls-16,.cls-17,.cls-7{stroke-width:1.5px;}.cls-11,.cls-14,.cls-9{stroke-linejoin:round;}.cls-10{clip-path:url(#clip-path-2);}.cls-11{stroke-width:6px;}.cls-12{clip-path:url(#clip-path-3);}.cls-15{fill:#d86259;stroke:#ce3a2c;}.cls-16{fill:#a977b4;stroke:#9157a3;}.cls-17{fill:#5dae49;stroke:#349a46;}</style><clipPath id="clip-path"><polygon class="cls-1" points="108 9.5 67.52 18.11 34.04 42.43 13.35 78.27 9.03 119.43 21.81 158.78 49.5 189.54 87.31 206.37 128.69 206.37 166.5 189.54 194.19 158.78 206.97 119.43 202.65 78.27 181.96 42.43 148.48 18.11 108 9.5"/></clipPath><clipPath id="clip-path-2"><path class="cls-2" d="M137.62,78.23l-10.34,38.91,26,52c-1.1.44-46,27.08-46,27.08L71.36,166.24l4-18.5,11-100-.27.14,25.11,2.91,26.2,27.54Z"/></clipPath><clipPath id="clip-path-3"><circle class="cls-2" cx="108.07" cy="108.06" r="72.25"/></clipPath></defs><title>Power Models</title><g id="Layer_5" data-name="Layer 5"><polygon class="cls-3" points="108 9.5 67.52 18.11 34.04 42.43 13.35 78.27 9.03 119.43 21.81 158.78 49.5 189.54 87.31 206.37 128.69 206.37 166.5 189.54 194.19 158.78 206.97 119.43 202.65 78.27 181.96 42.43 148.48 18.11 108 9.5"/><g class="cls-4"><line class="cls-5" x1="108" y1="-0.41" x2="108" y2="27.2"/><line class="cls-5" x1="85.47" y1="1.95" x2="91.21" y2="28.96"/><line class="cls-5" x1="63.93" y1="8.95" x2="75.16" y2="34.18"/><line class="cls-5" x1="44.31" y1="20.28" x2="60.54" y2="42.62"/><line class="cls-5" x1="27.48" y1="35.44" x2="48" y2="53.91"/><line class="cls-5" x1="14.17" y1="53.76" x2="38.08" y2="67.57"/><line class="cls-5" x1="4.95" y1="74.45" x2="31.21" y2="82.99"/><line class="cls-5" x1="0.24" y1="96.61" x2="27.7" y2="99.5"/><line class="cls-5" x1="0.24" y1="119.26" x2="27.7" y2="116.38"/><line class="cls-5" x1="4.95" y1="141.42" x2="31.21" y2="132.89"/><line class="cls-5" x1="14.17" y1="162.11" x2="38.08" y2="148.3"/><line class="cls-5" x1="27.48" y1="180.44" x2="48" y2="161.96"/><line class="cls-5" x1="44.31" y1="195.59" x2="60.54" y2="173.25"/><line class="cls-5" x1="63.93" y1="206.92" x2="75.16" y2="181.69"/><line class="cls-5" x1="85.47" y1="213.92" x2="91.21" y2="186.91"/><line class="cls-5" x1="108" y1="216.28" x2="108" y2="188.67"/><line class="cls-5" x1="130.53" y1="213.92" x2="124.79" y2="186.91"/><line class="cls-5" x1="152.07" y1="206.92" x2="140.84" y2="181.69"/><line class="cls-5" x1="171.69" y1="195.59" x2="155.46" y2="173.25"/><line class="cls-5" x1="188.52" y1="180.44" x2="168" y2="161.96"/><line class="cls-5" x1="201.83" y1="162.11" x2="177.92" y2="148.3"/><line class="cls-5" x1="211.05" y1="141.42" x2="184.79" y2="132.89"/><line class="cls-5" x1="215.76" y1="119.26" x2="188.3" y2="116.38"/><line class="cls-5" x1="215.76" y1="96.61" x2="188.3" y2="99.5"/><line class="cls-5" x1="211.05" y1="74.45" x2="184.79" y2="82.99"/><line class="cls-5" x1="201.83" y1="53.76" x2="177.92" y2="67.57"/><line class="cls-5" x1="188.52" y1="35.44" x2="168" y2="53.91"/><line class="cls-5" x1="171.69" y1="20.28" x2="155.46" y2="42.62"/><line class="cls-5" x1="152.07" y1="8.95" x2="140.84" y2="34.18"/><line class="cls-5" x1="130.53" y1="1.95" x2="124.79" y2="28.96"/><circle class="cls-6" cx="108" cy="107.94" r="1.68"/><line class="cls-7" x1="96.94" y1="0.15" x2="99.76" y2="27.62"/><line class="cls-7" x1="74.78" y1="4.81" x2="83.24" y2="31.09"/><line class="cls-7" x1="54.06" y1="13.97" x2="67.81" y2="37.91"/><line class="cls-7" x1="35.7" y1="27.24" x2="54.13" y2="47.8"/><line class="cls-7" x1="20.5" y1="44.03" x2="42.8" y2="60.32"/><line class="cls-7" x1="9.13" y1="63.62" x2="34.32" y2="74.91"/><line class="cls-7" x1="2.07" y1="85.14" x2="29.07" y2="90.95"/><line class="cls-7" x1="-0.35" y1="107.67" x2="27.26" y2="107.73"/><line class="cls-7" x1="1.96" y1="130.2" x2="28.98" y2="124.53"/><line class="cls-7" x1="8.91" y1="151.76" x2="34.16" y2="140.59"/><line class="cls-7" x1="20.19" y1="171.4" x2="42.56" y2="155.23"/><line class="cls-7" x1="35.3" y1="188.27" x2="53.83" y2="167.8"/><line class="cls-7" x1="53.59" y1="201.63" x2="67.46" y2="177.76"/><line class="cls-7" x1="74.26" y1="210.9" x2="82.86" y2="184.66"/><line class="cls-7" x1="96.41" y1="215.66" x2="99.36" y2="188.21"/><line class="cls-7" x1="119.06" y1="215.72" x2="116.24" y2="188.25"/><line class="cls-7" x1="141.22" y1="211.07" x2="132.76" y2="184.78"/><line class="cls-7" x1="161.94" y1="201.9" x2="148.19" y2="177.96"/><line class="cls-7" x1="180.3" y1="188.64" x2="161.87" y2="168.07"/><line class="cls-7" x1="195.5" y1="171.84" x2="173.2" y2="155.56"/><line class="cls-7" x1="206.87" y1="152.25" x2="181.68" y2="140.96"/><line class="cls-7" x1="213.93" y1="130.73" x2="186.93" y2="124.92"/><line class="cls-7" x1="216.35" y1="108.21" x2="188.74" y2="108.14"/><line class="cls-7" x1="214.04" y1="85.67" x2="187.02" y2="91.35"/><line class="cls-7" x1="207.09" y1="64.11" x2="181.84" y2="75.28"/><line class="cls-7" x1="195.81" y1="44.47" x2="173.44" y2="60.64"/><line class="cls-7" x1="180.7" y1="27.6" x2="162.17" y2="48.07"/><line class="cls-7" x1="162.41" y1="14.24" x2="148.54" y2="38.12"/><line class="cls-7" x1="141.74" y1="4.97" x2="133.14" y2="31.21"/><line class="cls-7" x1="119.59" y1="0.21" x2="116.64" y2="27.66"/><circle class="cls-6" cx="108" cy="107.94" r="1.68"/></g><polygon class="cls-8" points="108 9.5 67.52 18.11 34.04 42.43 13.35 78.27 9.03 119.43 21.81 158.78 49.5 189.54 87.31 206.37 128.69 206.37 166.5 189.54 194.19 158.78 206.97 119.43 202.65 78.27 181.96 42.43 148.48 18.11 108 9.5"/><circle class="cls-1" cx="108.33" cy="108.51" r="90.75"/><path class="cls-6" d="M55.11,42l3.2-2.41a2.65,2.65,0,1,1,3.18,4.23L59.94,45l1.63,2.17-1.65,1.24Zm4-.86-1.34,1,1.09,1.44,1.33-1a.87.87,0,0,0,.23-1.28A.89.89,0,0,0,59.14,41.15Z"/><path class="cls-6" d="M66.22,34.29A4.14,4.14,0,1,1,64.57,40,4.07,4.07,0,0,1,66.22,34.29Zm.91,1.58a2.32,2.32,0,1,0,3,.93A2.16,2.16,0,0,0,67.13,35.87Z"/><path class="cls-6" d="M78.22,31.94,79,37.05l-2,.81-5.09-6.59L74,30.41l3.1,4.51-.7-5.47,1.47-.58,3.25,4.46-.86-5.41,2.16-.86.83,8.28-2,.81Z"/><path class="cls-6" d="M85,26.42,90.65,25l.43,1.69-3.69.93.32,1.29L91.32,28l.43,1.7-3.61.91.35,1.4,3.69-.93.43,1.69-5.7,1.43Z"/><path class="cls-6" d="M97.48,29.21l-1,.15L96.8,32l-2,.28L93.67,24.4l4-.55a2.58,2.58,0,0,1,3.12,2.26,2.44,2.44,0,0,1-1.26,2.6l2,2.69-2.34.32Zm.09-3.59L96,25.84l.24,1.78,1.62-.22a.9.9,0,1,0-.24-1.78Z"/><path class="cls-6" d="M115.73,26.05l-2.33,5.28-.91-.06-1.71-5.5-.31,5.39L108.41,31l.46-8,2.86.17,1.41,4.62,1.94-4.43,2.86.16-.46,8-2.06-.12Z"/><path class="cls-6" d="M125.24,24.7a4.14,4.14,0,1,1-5,3.22A4.06,4.06,0,0,1,125.24,24.7Zm-.36,1.79a2.15,2.15,0,0,0-2.59,1.84,2.18,2.18,0,1,0,4.27.86A2.16,2.16,0,0,0,124.88,26.49Z"/><path class="cls-6" d="M132.34,26.51l3.18,1.09c2.39.81,3.61,2.83,2.81,5.18s-3,3.2-5.38,2.39l-3.19-1.09Zm1.18,7a2.12,2.12,0,0,0,2.81-1.38A2,2,0,0,0,135,29.3l-1.23-.42-1.43,4.17Z"/><path class="cls-6" d="M142.3,30.16l5.3,2.52-.75,1.57-3.44-1.63-.57,1.2,3.36,1.6L145.45,37l-3.36-1.6-.62,1.3,3.43,1.64-.75,1.57-5.29-2.53Z"/><path class="cls-6" d="M150.23,34.14,152,35.22l-3.22,5.3,2.75,1.67-.94,1.53L146.08,41Z"/><path class="cls-6" d="M154.34,43.06a3.62,3.62,0,0,0,1.4,2.39c.56.42,1.09.44,1.32.14s0-.82-.6-1.48c-.89-1-2.16-2.38-1-3.9.81-1.07,2.42-1.31,4.06-.07A4.89,4.89,0,0,1,161.42,43l-1.79.49a3.81,3.81,0,0,0-1.3-2c-.55-.41-.92-.35-1.13-.07s.05.75.66,1.42c.88,1,2.1,2.42,1,3.86-1,1.28-2.56,1.42-4.27.12a4.88,4.88,0,0,1-2.07-3.15Z"/><polyline class="cls-9" points="110.52 51.71 108 119.68 107.33 180.49"/><polygon class="cls-9" points="133.95 115.12 107.75 87.58 82.64 84.67 133.95 115.12"/><polygon class="cls-9" points="136.26 98.18 110.06 70.65 84.95 67.74 136.26 98.18"/><polygon class="cls-9" points="137.62 78.23 111.42 50.7 86.31 47.79 137.62 78.23"/><line class="cls-9" x1="111.23" y1="116.94" x2="120.5" y2="150.01"/><line class="cls-9" x1="105.36" y1="117.07" x2="95.53" y2="152.07"/><polyline class="cls-9" points="116.91 114.47 108 119.68 99.21 114.47"/><g class="cls-10"><polyline class="cls-11" points="118.26 52.19 116.49 114.5 142.52 165.38 120.81 152.32 107.45 183.5 95.95 153.06 75.8 164.09 99.93 117.66 102.62 43.82"/></g><path class="cls-6" d="M45.57,153.67l1,1.31-3.91,3,1.54,2-1.13.86-2.53-3.34Z"/><path class="cls-6" d="M47.69,164.72l-1.76-2-.93.4-1.19-1.32,6.3-2.45,1.38,1.53-3.11,6-1.19-1.33Zm-.45-2.56,1.18,1.33,1.32-2.39Z"/><path class="cls-6" d="M53.32,166.37l-2.6,2.8-1.2-1.11,4.29-4.64,1.24,1.14L54.47,169l2.47-2.68,1.21,1.12-4.3,4.65L52.69,171Z"/><path class="cls-6" d="M59.48,168.5l1.3,1-3,3.87,2,1.56-.87,1.12L55.6,173.5Z"/><path class="cls-6" d="M163.93,169.86l-2,1.74.39.93L161,173.7l-2.38-6.33,1.55-1.36,6,3.19-1.34,1.17Zm-2.57.42,1.34-1.17-2.36-1.35Z"/><path class="cls-6" d="M165.64,164.25l2.78,2.62-1.12,1.19-4.6-4.34,1.16-1.23,4.41.64-2.65-2.5,1.13-1.2,4.6,4.34-1.08,1.15Z"/><path class="cls-6" d="M171.4,160.4a2.82,2.82,0,0,0,1.91-1.07c.35-.44.38-.86.14-1s-.65,0-1.18.45c-.81.69-1.93,1.67-3.1.75-.84-.66-1-1.94,0-3.22a3.83,3.83,0,0,1,2.29-1.47l.36,1.42a3,3,0,0,0-1.62,1c-.34.42-.3.72-.08.89s.59,0,1.13-.5c.82-.68,2-1.63,3.08-.74s1.08,2,0,3.38a3.85,3.85,0,0,1-2.53,1.59Z"/><path class="cls-6" d="M171.71,153.05l.93-1.34,5.2,3.6-.93,1.34Z"/><g class="cls-12"><path class="cls-13" d="M5,62.61s36.76,10.53,81.85-14.4c30.66,12.56,80.64,11.16,109.55-3.86"/><path class="cls-13" d="M14.41,116.1s63.09,2.1,123.42-38.37C173.7,74.42,210,57,237.26,40.85"/><path class="cls-13" d="M2.48,78.61s36.76,14.53,81.85-10.4C124.05,89.13,165,79.37,193.88,64.35"/><path class="cls-13" d="M7.74,128.94s67.63,9.13,128-31.34C161.08,100.4,225.44,78,254.35,63"/><path class="cls-13" d="M0,91.61s36.76,17.53,81.85-7.4c39.72,20.92,80.64,11.16,109.55-3.86"/><path class="cls-13" d="M5.24,144.94s66.19,9.35,126.52-31.12c36,12.68,77.71-20.6,106.62-35.61"/></g><path class="cls-13" d="M36.89,155.43A85.58,85.58,0,0,1,29,76.71"/><path class="cls-13" d="M160.54,176.18a85.52,85.52,0,0,1-99.72,3.38"/><path class="cls-13" d="M187.89,77.24a85.64,85.64,0,0,1-6.48,75.59"/><path class="cls-13" d="M40.55,153.22a81.3,81.3,0,0,1-7.56-75"/><path class="cls-13" d="M157.87,172.84a81.22,81.22,0,0,1-94.92,3"/><path class="cls-13" d="M184,78.92a81.3,81.3,0,0,1-6.39,72"/><path class="cls-13" d="M43.77,150.89a77.24,77.24,0,0,1-7.35-70.6"/><path class="cls-13" d="M155.5,169.46a77.17,77.17,0,0,1-90.34,3"/><path class="cls-13" d="M180,80.31a77.24,77.24,0,0,1-6,68.52"/><path class="cls-13" d="M164.83,44.41A85.47,85.47,0,0,1,181.34,152.7"/><path class="cls-13" d="M36.46,154.85A85.49,85.49,0,0,1,50.58,45.35"/><path class="cls-13" d="M162.05,47.65a81.21,81.21,0,0,1,15.66,102.81"/><path class="cls-13" d="M40.19,152.74A81.22,81.22,0,0,1,53.49,48.48"/><path class="cls-13" d="M159.45,50.77a77.16,77.16,0,0,1,14.88,97.44"/><path class="cls-13" d="M43.7,150.69A77.13,77.13,0,0,1,56.48,51.25"/><circle class="cls-8" cx="108.07" cy="108.06" r="72.25"/><circle class="cls-8" cx="108.07" cy="108.06" r="72.25"/><path class="cls-14" d="M105.16,180.38A72.44,72.44,0,0,1,94,179.06c-2.37,9.68-5.07,20.7-6.73,27.43h41.31c-.83-3.36-1.91-7.78-3.09-12.57s-2.44-10-3.63-14.83A72.16,72.16,0,0,1,105.16,180.38Z"/><circle class="cls-15" cx="102.74" cy="197.71" r="3.75"/><circle class="cls-16" cx="113.01" cy="197.71" r="3.75"/><circle class="cls-17" cx="107.88" cy="189.13" r="3.75"/></g></svg>